<?xml version="1.0" encoding="utf-8"?>
<!-- Generator: Adobe Illustrator 21.0.0, SVG Export Plug-In . SVG Version: 6.00 Build 0)  -->
<svg version="1.1" id="Layer_1" xmlns="http://www.w3.org/2000/svg" xmlns:xlink="http://www.w3.org/1999/xlink" x="0px" y="0px"
	 viewBox="13 64 22 22" style="enable-background:new 0 0 150 150;" xml:space="preserve">
<style type="text/css">
	.st0{fill:#1D396B;}
	.st1{fill:#0B1F3B;}
	.st2{fill:#231F20;}
	.st3{fill:#7CB1DF;}
</style>
<g>
	<path class="st0" d="M17.3,74.4c-1.7,0-3.3,0-4.8,0c0-0.1,0-0.1,0-0.2c0-1.5,0-2.9,0-4.4c0-0.2,0-0.2,0.2-0.2c1.5,0,2.9,0,4.5,0
		c0.1,0,0.1,0,0.2,0C17.3,71.3,17.3,72.9,17.3,74.4z"/>
	<path class="st1" d="M17.3,63.7c0,1.6,0,3.3,0,4.8c-1.6,0-3.3,0-4.8,0c0-1.6,0-3.3,0-4.8C14.1,63.7,15.8,63.7,17.3,63.7z"/>
	<path class="st0" d="M30.2,75.5c1.6,0,3.3,0,4.8,0c0,1.6,0,3.3,0,4.8c-1.6,0-3.3,0-4.8,0C30.2,78.7,30.2,77.1,30.2,75.5z"/>
	<path class="st0" d="M29.2,81.4c0,1.6,0,3.3,0,4.8c-1.6,0-3.3,0-4.8,0c0-1.6,0-3.3,0-4.8C25.9,81.4,27.5,81.4,29.2,81.4z"/>
	<path class="st1" d="M30.2,81.4c1.6,0,3.3,0,4.8,0c0,1.6,0,3.3,0,4.8c-1.6,0-3.3,0-4.8,0C30.2,84.6,30.2,83,30.2,81.4z"/>
	<path class="st0" d="M23.2,63.7c0,1.6,0,3.3,0,4.8c-1.6,0-3.3,0-4.8,0c0-1.6,0-3.2,0-4.8C20,63.7,21.6,63.7,23.2,63.7z"/>
	<path class="st3" d="M23.2,69.6c0,1.6,0,3.3,0,4.8c-1.6,0-3.3,0-4.8,0c0-1.6,0-3.3,0-4.8C20,69.6,21.6,69.6,23.2,69.6z"/>
	<path class="st3" d="M29.2,63.7c0,1.6,0,3.3,0,4.8c-1.6,0-3.3,0-4.8,0c0-1.6,0-3.3,0-4.8C25.9,63.7,27.5,63.7,29.2,63.7z"/>
	<path class="st3" d="M17.3,75.5c0,1.6,0,3.3,0,4.8c-1.6,0-3.3,0-4.8,0c0-1.6,0-3.3,0-4.8C14.1,75.5,15.8,75.5,17.3,75.5z"/>
	<path class="st3" d="M29.2,75.5c0,1.6,0,3.3,0,4.8c-1.6,0-3.3,0-4.8,0c0-1.6,0-3.3,0-4.8C25.9,75.5,27.5,75.5,29.2,75.5z"/>
	<path class="st3" d="M35,69.6c0,1.6,0,3.3,0,4.8c-1.6,0-3.3,0-4.8,0c0-1.6,0-3.3,0-4.8C31.8,69.6,33.4,69.6,35,69.6z"/>
	<path class="st3" d="M23.2,81.4c0,1.6,0,3.3,0,4.8c-1.6,0-3.3,0-4.8,0c0-1.6,0-3.3,0-4.8C20,81.4,21.6,81.4,23.2,81.4z"/>
</g>
</svg>
